<svg width="101" height="101" viewBox="0 0 101 101" fill="none" xmlns="http://www.w3.org/2000/svg">
<circle cx="49.6537" cy="50.0933" r="48.7333" fill="#253D84" stroke="#212121" stroke-width="1.14667"/>
<rect x="1.49219" y="1.93311" width="98.8534" height="98.8534" rx="49.4267" fill="#7B6FC5"/>
<path fill-rule="evenodd" clip-rule="evenodd" d="M40.6693 27.1598C35.868 35.4769 38.7175 46.1121 47.0346 50.9155C51.8358 42.5984 48.9864 31.9632 40.6693 27.1598ZM50.7988 57.4635C50.7835 67.0551 43.0036 74.8255 33.4084 74.8255C33.4084 65.2208 41.1941 57.4351 50.7988 57.435L50.7988 57.4635ZM50.7988 57.4635L50.7989 57.435C60.4035 57.4351 68.1892 65.2208 68.1892 74.8255C58.594 74.8255 50.8142 67.0551 50.7988 57.4635ZM47.0345 50.9155C38.7174 46.1142 28.0822 48.9637 23.2788 57.2807C31.5959 62.082 42.2311 59.2325 47.0345 50.9155ZM78.3188 57.2807C69.9996 62.082 59.3644 59.2325 54.5631 50.9155C54.5631 50.9155 54.5631 50.9155 54.5631 50.9155C49.7618 42.5963 52.6113 31.9611 60.9284 27.1598C65.7276 35.4754 62.8826 46.105 54.5739 50.9092C62.8894 46.1166 73.5196 48.9673 78.3188 57.2807Z" fill="white"/>
</svg>
